<svg width="136" height="41" viewBox="0 0 136 41" fill="none" xmlns="http://www.w3.org/2000/svg">
<g clip-path="url(#clip0)">
<path d="M130.539 39.9433H5.2395C2.48417 39.9433 0.227539 37.7129 0.227539 34.9896V5.26776C0.227539 2.54449 2.48417 0.31411 5.2395 0.31411H130.539C133.294 0.31411 135.55 2.54449 135.55 5.26776V34.9896C135.55 37.7129 133.294 39.9433 130.539 39.9433Z" fill="transparent"/>
<path d="M47.7592 10.4629C47.7592 11.2902 47.5086 11.9527 47.0149 12.4468C46.4473 13.0326 45.7081 13.3274 44.8021 13.3274C43.9363 13.3274 43.1971 13.0277 42.5906 12.4369C41.9829 11.8375 41.6797 11.1019 41.6797 10.2214C41.6797 9.34091 41.9829 8.60529 42.5906 8.01085C43.1971 7.41517 43.9363 7.11548 44.8021 7.11548C45.2332 7.11548 45.6441 7.20341 46.0363 7.36688C46.4273 7.53159 46.7455 7.7545 46.9761 8.02943L46.4523 8.55204C46.0501 8.08268 45.5026 7.8511 44.8021 7.8511C44.1706 7.8511 43.6231 8.06906 43.1582 8.50869C42.6984 8.94957 42.4678 9.52048 42.4678 10.2214C42.4678 10.9224 42.6984 11.4982 43.1582 11.9391C43.6231 12.3738 44.1706 12.5967 44.8021 12.5967C45.4725 12.5967 46.0363 12.3738 46.4811 11.9341C46.7743 11.6431 46.941 11.2419 46.9849 10.7292H44.8021V10.0134H47.7141C47.7492 10.1682 47.7592 10.318 47.7592 10.4629Z" fill="#39434E" stroke="white" stroke-width="0.16" stroke-miterlimit="10"/>
<path d="M52.3788 7.98113H49.6435V9.86352H52.1094V10.5793H49.6435V12.4617H52.3788V13.1911H48.8691V7.25171H52.3788V7.98113Z" fill="#39434E" stroke="white" stroke-width="0.16" stroke-miterlimit="10"/>
<path d="M55.6386 13.1911H54.8643V7.98113H53.1865V7.25171H57.3176V7.98113H55.6386V13.1911Z" fill="#39434E" stroke="white" stroke-width="0.16" stroke-miterlimit="10"/>
<path d="M60.3076 13.1911V7.25171H61.0807V13.1911H60.3076Z" fill="#39434E" stroke="white" stroke-width="0.16" stroke-miterlimit="10"/>
<path d="M64.5078 13.1911H63.7397V7.98113H62.0557V7.25171H66.1918V7.98113H64.5078V13.1911Z" fill="#39434E" stroke="white" stroke-width="0.16" stroke-miterlimit="10"/>
<path d="M74.0132 12.427C73.4205 13.0277 72.6863 13.3274 71.8104 13.3274C70.9296 13.3274 70.1953 13.0277 69.6027 12.427C69.0113 11.8276 68.7168 11.092 68.7168 10.2214C68.7168 9.35081 69.0113 8.6152 69.6027 8.0158C70.1953 7.41517 70.9296 7.11548 71.8104 7.11548C72.6813 7.11548 73.4155 7.41517 74.0082 8.02076C74.6046 8.6251 74.8991 9.35577 74.8991 10.2214C74.8991 11.092 74.6046 11.8276 74.0132 12.427ZM70.1753 11.9292C70.6213 12.3738 71.1639 12.5967 71.8104 12.5967C72.452 12.5967 72.9995 12.3738 73.4406 11.9292C73.8854 11.4846 74.1109 10.9137 74.1109 10.2214C74.1109 9.52914 73.8854 8.95824 73.4406 8.51365C72.9995 8.06906 72.452 7.84614 71.8104 7.84614C71.1639 7.84614 70.6213 8.06906 70.1753 8.51365C69.7305 8.95824 69.5049 9.52914 69.5049 10.2214C69.5049 10.9137 69.7305 11.4846 70.1753 11.9292Z" fill="#39434E" stroke="white" stroke-width="0.16" stroke-miterlimit="10"/>
<path d="M75.9854 13.1911V7.25171H76.9251L79.8471 11.871H79.8809L79.8471 10.7292V7.25171H80.6202V13.1911H79.8132L76.7534 8.34399H76.7196L76.7534 9.49076V13.1911H75.9854Z" fill="#39434E" stroke="white" stroke-width="0.16" stroke-miterlimit="10"/>
<path d="M68.526 21.8649C66.1717 21.8649 64.2483 23.6359 64.2483 26.0793C64.2483 28.5028 66.1717 30.2923 68.526 30.2923C70.8854 30.2923 72.8088 28.5028 72.8088 26.0793C72.8088 23.6359 70.8854 21.8649 68.526 21.8649ZM68.526 28.6329C67.2342 28.6329 66.1228 27.579 66.1228 26.0793C66.1228 24.5597 67.2342 23.5244 68.526 23.5244C69.8179 23.5244 70.9343 24.5597 70.9343 26.0793C70.9343 27.579 69.8179 28.6329 68.526 28.6329ZM59.1925 21.8649C56.8331 21.8649 54.9148 23.6359 54.9148 26.0793C54.9148 28.5028 56.8331 30.2923 59.1925 30.2923C61.5506 30.2923 63.4702 28.5028 63.4702 26.0793C63.4702 23.6359 61.5506 21.8649 59.1925 21.8649ZM59.1925 28.6329C57.8994 28.6329 56.7843 27.579 56.7843 26.0793C56.7843 24.5597 57.8994 23.5244 59.1925 23.5244C60.4843 23.5244 61.5957 24.5597 61.5957 26.0793C61.5957 27.579 60.4843 28.6329 59.1925 28.6329ZM48.086 23.1566V24.9473H52.4126C52.286 25.948 51.9477 26.6836 51.429 27.1963C50.7975 27.8155 49.8139 28.5028 48.086 28.5028C45.4234 28.5028 43.3384 26.379 43.3384 23.7473C43.3384 21.1157 45.4234 18.9918 48.086 18.9918C49.5257 18.9918 50.5732 19.5479 51.3463 20.2686L52.6231 19.0067C51.5417 17.9862 50.1033 17.2023 48.086 17.2023C44.4348 17.2023 41.3662 20.1386 41.3662 23.7473C41.3662 27.3561 44.4348 30.2923 48.086 30.2923C50.0595 30.2923 51.5417 29.6533 52.707 28.4545C53.9011 27.2743 54.2733 25.6149 54.2733 24.2749C54.2733 23.8588 54.2382 23.4761 54.1755 23.1566H48.086ZM93.5019 24.5449C93.1498 23.6024 92.0635 21.8649 89.8507 21.8649C87.6579 21.8649 85.8323 23.5727 85.8323 26.0793C85.8323 28.4397 87.6391 30.2923 90.0612 30.2923C92.0196 30.2923 93.1498 29.1121 93.6147 28.4248L92.1612 27.4675C91.6763 28.1685 91.016 28.6329 90.0612 28.6329C89.1127 28.6329 88.4323 28.2031 87.9962 27.3561L93.6986 25.0241L93.5019 24.5449ZM87.688 25.948C87.6391 24.3232 88.9648 23.491 89.9146 23.491C90.6589 23.491 91.2904 23.8588 91.5009 24.3851L87.688 25.948ZM83.0532 30.036H84.9277V17.6519H83.0532V30.036ZM79.9834 22.8037H79.9207C79.4997 22.3108 78.6966 21.8649 77.6791 21.8649C75.544 21.8649 73.5919 23.7176 73.5919 26.0929C73.5919 28.4545 75.544 30.2923 77.6791 30.2923C78.6966 30.2923 79.4997 29.8428 79.9207 29.335H79.9834V29.9394C79.9834 31.5506 79.1125 32.4162 77.7079 32.4162C76.5627 32.4162 75.8523 31.5989 75.5591 30.9115L73.9289 31.584C74.3988 32.701 75.643 34.0757 77.7079 34.0757C79.9057 34.0757 81.7601 32.7976 81.7601 29.688V22.1213H79.9834V22.8037ZM77.8395 28.6329C76.5477 28.6329 75.4663 27.5641 75.4663 26.0929C75.4663 24.608 76.5477 23.5244 77.8395 23.5244C79.1125 23.5244 80.1162 24.608 80.1162 26.0929C80.1162 27.5641 79.1125 28.6329 77.8395 28.6329ZM102.278 17.6519H97.7946V30.036H99.6641V25.3436H102.278C104.354 25.3436 106.39 23.8588 106.39 21.4971C106.39 19.1367 104.349 17.6519 102.278 17.6519ZM102.327 23.621H99.6641V19.3745H102.327C103.723 19.3745 104.519 20.52 104.519 21.4971C104.519 22.4557 103.723 23.621 102.327 23.621ZM113.883 21.8414C112.532 21.8414 111.128 22.4309 110.55 23.7374L112.209 24.4247C112.566 23.7374 113.223 23.5145 113.917 23.5145C114.887 23.5145 115.87 24.0904 115.885 25.1071V25.2371C115.547 25.0439 114.823 24.7579 113.932 24.7579C112.145 24.7579 110.325 25.73 110.325 27.5443C110.325 29.2038 111.788 30.2725 113.433 30.2725C114.691 30.2725 115.385 29.7115 115.821 29.0589H115.885V30.0162H117.691V25.2656C117.691 23.0699 116.032 21.8414 113.883 21.8414ZM113.657 28.6279C113.046 28.6279 112.194 28.3282 112.194 27.579C112.194 26.6204 113.257 26.2526 114.176 26.2526C114.999 26.2526 115.385 26.4322 115.885 26.6687C115.739 27.8155 114.74 28.6279 113.657 28.6279ZM124.269 22.1126L122.12 27.4811H122.056L119.835 22.1126H117.819L121.157 29.6149L119.252 33.7896H121.206L126.349 22.1126H124.269ZM107.418 30.036H109.292V17.6519H107.418V30.036Z" fill="#39434E"/>
<path d="M10.6875 7.78297C10.3931 8.08762 10.2227 8.56193 10.2227 9.17619V31.0862C10.2227 31.7004 10.3931 32.1747 10.6875 32.4794L10.7602 32.5463L23.1823 20.2736V19.9838L10.7602 7.71115L10.6875 7.78297Z" fill="url(#paint0_linear)"/>
<path d="M27.3187 24.3665L23.1826 20.2736V19.9838L27.3238 15.8908L27.4165 15.9441L32.3207 18.702C33.7203 19.4847 33.7203 20.7726 32.3207 21.5603L27.4165 24.3133L27.3187 24.3665Z" fill="url(#paint1_linear)"/>
<path d="M27.4162 24.3133L23.1823 20.1287L10.6875 32.4794C11.1524 32.9623 11.9104 33.0205 12.7725 32.5376L27.4162 24.3133Z" fill="url(#paint2_linear)"/>
<path d="M27.4162 15.9441L12.7725 7.71983C11.9104 7.24181 11.1524 7.30001 10.6875 7.78299L23.1823 20.1287L27.4162 15.9441Z" fill="url(#paint3_linear)"/>
</g>
<defs>
<linearGradient id="paint0_linear" x1="22.0794" y1="31.3143" x2="5.45372" y2="14.4929" gradientUnits="userSpaceOnUse">
<stop stop-color="#00A0FF"/>
<stop offset="0.0066" stop-color="#00A1FF"/>
<stop offset="0.2601" stop-color="#00BEFF"/>
<stop offset="0.5122" stop-color="#00D2FF"/>
<stop offset="0.7604" stop-color="#00DFFF"/>
<stop offset="1" stop-color="#00E3FF"/>
</linearGradient>
<linearGradient id="paint1_linear" x1="34.1432" y1="20.1273" x2="9.88839" y2="20.1273" gradientUnits="userSpaceOnUse">
<stop stop-color="#FFE000"/>
<stop offset="0.4087" stop-color="#FFBD00"/>
<stop offset="0.7754" stop-color="#FFA500"/>
<stop offset="1" stop-color="#FF9C00"/>
</linearGradient>
<linearGradient id="paint2_linear" x1="25.1139" y1="17.8539" x2="2.56815" y2="-4.95732" gradientUnits="userSpaceOnUse">
<stop stop-color="#FF3A44"/>
<stop offset="1" stop-color="#C31162"/>
</linearGradient>
<linearGradient id="paint3_linear" x1="7.54229" y1="39.7688" x2="17.61" y2="29.5826" gradientUnits="userSpaceOnUse">
<stop stop-color="#32A071"/>
<stop offset="0.0685" stop-color="#2DA771"/>
<stop offset="0.4762" stop-color="#15CF74"/>
<stop offset="0.8009" stop-color="#06E775"/>
<stop offset="1" stop-color="#00F076"/>
</linearGradient>
<clipPath id="clip0">
<rect width="135.716" height="40.019" fill="white" transform="translate(0 0.000305176)"/>
</clipPath>
</defs>
</svg>
