<svg width="106" height="106" viewBox="0 0 106 106" fill="none" xmlns="http://www.w3.org/2000/svg">
<path fill-rule="evenodd" clip-rule="evenodd" d="M17.9592 3.07993C17.9592 4.40541 16.8847 5.47993 15.5592 5.47993C14.2338 5.47993 13.1592 4.40541 13.1592 3.07993C13.1592 1.75445 14.2338 0.679932 15.5592 0.679932C16.8847 0.679932 17.9592 1.75445 17.9592 3.07993ZM5.48021 3.07996C5.48021 4.40545 4.40569 5.47996 3.08021 5.47996C1.75472 5.47996 0.680207 4.40545 0.680207 3.07996C0.680207 1.75448 1.75472 0.679962 3.08021 0.679962C4.40569 0.679962 5.48021 1.75448 5.48021 3.07996ZM28.0397 5.47993C29.3652 5.47993 30.4397 4.40541 30.4397 3.07993C30.4397 1.75445 29.3652 0.679932 28.0397 0.679932C26.7142 0.679932 25.6397 1.75445 25.6397 3.07993C25.6397 4.40541 26.7142 5.47993 28.0397 5.47993ZM42.9202 3.07993C42.9202 4.40541 41.8457 5.47993 40.5202 5.47993C39.1947 5.47993 38.1202 4.40541 38.1202 3.07993C38.1202 1.75445 39.1947 0.679932 40.5202 0.679932C41.8457 0.679932 42.9202 1.75445 42.9202 3.07993ZM52.9997 5.47993C54.3252 5.47993 55.3997 4.40541 55.3997 3.07993C55.3997 1.75445 54.3252 0.679932 52.9997 0.679932C51.6742 0.679932 50.5997 1.75445 50.5997 3.07993C50.5997 4.40541 51.6742 5.47993 52.9997 5.47993ZM67.8802 3.07993C67.8802 4.40541 66.8057 5.47993 65.4802 5.47993C64.1547 5.47993 63.0802 4.40541 63.0802 3.07993C63.0802 1.75445 64.1547 0.679932 65.4802 0.679932C66.8057 0.679932 67.8802 1.75445 67.8802 3.07993ZM77.9598 5.47993C79.2852 5.47993 80.3598 4.40541 80.3598 3.07993C80.3598 1.75445 79.2852 0.679932 77.9598 0.679932C76.6343 0.679932 75.5598 1.75445 75.5598 3.07993C75.5598 4.40541 76.6343 5.47993 77.9598 5.47993ZM92.8393 3.07993C92.8393 4.40541 91.7648 5.47993 90.4393 5.47993C89.1138 5.47993 88.0393 4.40541 88.0393 3.07993C88.0393 1.75445 89.1138 0.679932 90.4393 0.679932C91.7648 0.679932 92.8393 1.75445 92.8393 3.07993ZM102.919 5.47993C104.244 5.47993 105.319 4.40541 105.319 3.07993C105.319 1.75445 104.244 0.679932 102.919 0.679932C101.593 0.679932 100.519 1.75445 100.519 3.07993C100.519 4.40541 101.593 5.47993 102.919 5.47993ZM5.47969 15.5599C5.47969 16.8854 4.40517 17.9599 3.07969 17.9599C1.7542 17.9599 0.679688 16.8854 0.679688 15.5599C0.679688 14.2345 1.7542 13.1599 3.07969 13.1599C4.40517 13.1599 5.47969 14.2345 5.47969 15.5599ZM15.5592 17.9599C16.8847 17.9599 17.9592 16.8854 17.9592 15.5599C17.9592 14.2345 16.8847 13.1599 15.5592 13.1599C14.2338 13.1599 13.1592 14.2345 13.1592 15.5599C13.1592 16.8854 14.2338 17.9599 15.5592 17.9599ZM30.4397 15.5599C30.4397 16.8854 29.3652 17.9599 28.0397 17.9599C26.7142 17.9599 25.6397 16.8854 25.6397 15.5599C25.6397 14.2345 26.7142 13.1599 28.0397 13.1599C29.3652 13.1599 30.4397 14.2345 30.4397 15.5599ZM40.5202 17.9599C41.8457 17.9599 42.9202 16.8854 42.9202 15.5599C42.9202 14.2345 41.8457 13.1599 40.5202 13.1599C39.1947 13.1599 38.1202 14.2345 38.1202 15.5599C38.1202 16.8854 39.1947 17.9599 40.5202 17.9599ZM55.3997 15.5599C55.3997 16.8854 54.3252 17.9599 52.9997 17.9599C51.6742 17.9599 50.5997 16.8854 50.5997 15.5599C50.5997 14.2345 51.6742 13.1599 52.9997 13.1599C54.3252 13.1599 55.3997 14.2345 55.3997 15.5599ZM65.4802 17.9599C66.8057 17.9599 67.8802 16.8854 67.8802 15.5599C67.8802 14.2345 66.8057 13.1599 65.4802 13.1599C64.1547 13.1599 63.0802 14.2345 63.0802 15.5599C63.0802 16.8854 64.1547 17.9599 65.4802 17.9599ZM80.3598 15.5599C80.3598 16.8854 79.2852 17.9599 77.9598 17.9599C76.6343 17.9599 75.5598 16.8854 75.5598 15.5599C75.5598 14.2345 76.6343 13.1599 77.9598 13.1599C79.2852 13.1599 80.3598 14.2345 80.3598 15.5599ZM90.4393 17.9599C91.7648 17.9599 92.8393 16.8854 92.8393 15.5599C92.8393 14.2345 91.7648 13.1599 90.4393 13.1599C89.1138 13.1599 88.0393 14.2345 88.0393 15.5599C88.0393 16.8854 89.1138 17.9599 90.4393 17.9599ZM105.319 15.5599C105.319 16.8854 104.244 17.9599 102.919 17.9599C101.593 17.9599 100.519 16.8854 100.519 15.5599C100.519 14.2345 101.593 13.1599 102.919 13.1599C104.244 13.1599 105.319 14.2345 105.319 15.5599ZM3.07969 30.44C4.40517 30.44 5.47969 29.3654 5.47969 28.04C5.47969 26.7145 4.40517 25.64 3.07969 25.64C1.7542 25.64 0.679688 26.7145 0.679688 28.04C0.679688 29.3654 1.7542 30.44 3.07969 30.44ZM17.9592 28.04C17.9592 29.3654 16.8847 30.44 15.5592 30.44C14.2338 30.44 13.1592 29.3654 13.1592 28.04C13.1592 26.7145 14.2338 25.64 15.5592 25.64C16.8847 25.64 17.9592 26.7145 17.9592 28.04ZM28.0397 30.44C29.3652 30.44 30.4397 29.3654 30.4397 28.04C30.4397 26.7145 29.3652 25.64 28.0397 25.64C26.7142 25.64 25.6397 26.7145 25.6397 28.04C25.6397 29.3654 26.7142 30.44 28.0397 30.44ZM42.9202 28.04C42.9202 29.3654 41.8457 30.44 40.5202 30.44C39.1947 30.44 38.1202 29.3654 38.1202 28.04C38.1202 26.7145 39.1947 25.64 40.5202 25.64C41.8457 25.64 42.9202 26.7145 42.9202 28.04ZM52.9997 30.44C54.3252 30.44 55.3997 29.3654 55.3997 28.04C55.3997 26.7145 54.3252 25.64 52.9997 25.64C51.6742 25.64 50.5997 26.7145 50.5997 28.04C50.5997 29.3654 51.6742 30.44 52.9997 30.44ZM67.8802 28.04C67.8802 29.3654 66.8057 30.44 65.4802 30.44C64.1547 30.44 63.0802 29.3654 63.0802 28.04C63.0802 26.7145 64.1547 25.64 65.4802 25.64C66.8057 25.64 67.8802 26.7145 67.8802 28.04ZM77.9598 30.44C79.2852 30.44 80.3598 29.3654 80.3598 28.04C80.3598 26.7145 79.2852 25.64 77.9598 25.64C76.6343 25.64 75.5598 26.7145 75.5598 28.04C75.5598 29.3654 76.6343 30.44 77.9598 30.44ZM92.8393 28.04C92.8393 29.3654 91.7648 30.44 90.4393 30.44C89.1138 30.44 88.0393 29.3654 88.0393 28.04C88.0393 26.7145 89.1138 25.64 90.4393 25.64C91.7648 25.64 92.8393 26.7145 92.8393 28.04ZM102.919 30.44C104.244 30.44 105.319 29.3654 105.319 28.04C105.319 26.7145 104.244 25.64 102.919 25.64C101.593 25.64 100.519 26.7145 100.519 28.04C100.519 29.3654 101.593 30.44 102.919 30.44ZM5.47969 40.52C5.47969 41.8454 4.40517 42.92 3.07969 42.92C1.7542 42.92 0.679688 41.8454 0.679688 40.52C0.679688 39.1945 1.7542 38.12 3.07969 38.12C4.40517 38.12 5.47969 39.1945 5.47969 40.52ZM15.5592 42.92C16.8847 42.92 17.9592 41.8454 17.9592 40.52C17.9592 39.1945 16.8847 38.12 15.5592 38.12C14.2338 38.12 13.1592 39.1945 13.1592 40.52C13.1592 41.8454 14.2338 42.92 15.5592 42.92ZM30.4397 40.52C30.4397 41.8454 29.3652 42.92 28.0397 42.92C26.7142 42.92 25.6397 41.8454 25.6397 40.52C25.6397 39.1945 26.7142 38.12 28.0397 38.12C29.3652 38.12 30.4397 39.1945 30.4397 40.52ZM40.5202 42.92C41.8457 42.92 42.9202 41.8454 42.9202 40.52C42.9202 39.1945 41.8457 38.12 40.5202 38.12C39.1947 38.12 38.1202 39.1945 38.1202 40.52C38.1202 41.8454 39.1947 42.92 40.5202 42.92ZM55.3997 40.52C55.3997 41.8454 54.3252 42.92 52.9997 42.92C51.6742 42.92 50.5997 41.8454 50.5997 40.52C50.5997 39.1945 51.6742 38.12 52.9997 38.12C54.3252 38.12 55.3997 39.1945 55.3997 40.52ZM65.4802 42.92C66.8057 42.92 67.8802 41.8454 67.8802 40.52C67.8802 39.1945 66.8057 38.12 65.4802 38.12C64.1547 38.12 63.0802 39.1945 63.0802 40.52C63.0802 41.8454 64.1547 42.92 65.4802 42.92ZM80.3598 40.52C80.3598 41.8454 79.2852 42.92 77.9598 42.92C76.6343 42.92 75.5598 41.8454 75.5598 40.52C75.5598 39.1945 76.6343 38.12 77.9598 38.12C79.2852 38.12 80.3598 39.1945 80.3598 40.52ZM90.4393 42.92C91.7648 42.92 92.8393 41.8454 92.8393 40.52C92.8393 39.1945 91.7648 38.12 90.4393 38.12C89.1138 38.12 88.0393 39.1945 88.0393 40.52C88.0393 41.8454 89.1138 42.92 90.4393 42.92ZM105.319 40.52C105.319 41.8454 104.244 42.92 102.919 42.92C101.593 42.92 100.519 41.8454 100.519 40.52C100.519 39.1945 101.593 38.12 102.919 38.12C104.244 38.12 105.319 39.1945 105.319 40.52ZM3.07969 55.4C4.40517 55.4 5.47969 54.3255 5.47969 53C5.47969 51.6745 4.40517 50.6 3.07969 50.6C1.7542 50.6 0.679688 51.6745 0.679688 53C0.679688 54.3255 1.7542 55.4 3.07969 55.4ZM17.9592 53C17.9592 54.3255 16.8847 55.4 15.5592 55.4C14.2338 55.4 13.1592 54.3255 13.1592 53C13.1592 51.6745 14.2338 50.6 15.5592 50.6C16.8847 50.6 17.9592 51.6745 17.9592 53ZM28.0397 55.4C29.3652 55.4 30.4397 54.3255 30.4397 53C30.4397 51.6745 29.3652 50.6 28.0397 50.6C26.7142 50.6 25.6397 51.6745 25.6397 53C25.6397 54.3255 26.7142 55.4 28.0397 55.4ZM42.9202 53C42.9202 54.3255 41.8457 55.4 40.5202 55.4C39.1947 55.4 38.1202 54.3255 38.1202 53C38.1202 51.6745 39.1947 50.6 40.5202 50.6C41.8457 50.6 42.9202 51.6745 42.9202 53ZM52.9997 55.4C54.3252 55.4 55.3997 54.3255 55.3997 53C55.3997 51.6745 54.3252 50.6 52.9997 50.6C51.6742 50.6 50.5997 51.6745 50.5997 53C50.5997 54.3255 51.6742 55.4 52.9997 55.4ZM67.8802 53C67.8802 54.3255 66.8057 55.4 65.4802 55.4C64.1547 55.4 63.0802 54.3255 63.0802 53C63.0802 51.6745 64.1547 50.6 65.4802 50.6C66.8057 50.6 67.8802 51.6745 67.8802 53ZM77.9598 55.4C79.2852 55.4 80.3598 54.3255 80.3598 53C80.3598 51.6745 79.2852 50.6 77.9598 50.6C76.6343 50.6 75.5598 51.6745 75.5598 53C75.5598 54.3255 76.6343 55.4 77.9598 55.4ZM92.8393 53C92.8393 54.3255 91.7648 55.4 90.4393 55.4C89.1138 55.4 88.0393 54.3255 88.0393 53C88.0393 51.6745 89.1138 50.6 90.4393 50.6C91.7648 50.6 92.8393 51.6745 92.8393 53ZM102.919 55.4C104.244 55.4 105.319 54.3255 105.319 53C105.319 51.6745 104.244 50.6 102.919 50.6C101.593 50.6 100.519 51.6745 100.519 53C100.519 54.3255 101.593 55.4 102.919 55.4ZM5.47969 65.48C5.47969 66.8055 4.40517 67.88 3.07969 67.88C1.7542 67.88 0.679688 66.8055 0.679688 65.48C0.679688 64.1545 1.7542 63.08 3.07969 63.08C4.40517 63.08 5.47969 64.1545 5.47969 65.48ZM15.5592 67.88C16.8847 67.88 17.9592 66.8055 17.9592 65.48C17.9592 64.1545 16.8847 63.08 15.5592 63.08C14.2338 63.08 13.1592 64.1545 13.1592 65.48C13.1592 66.8055 14.2338 67.88 15.5592 67.88ZM30.4397 65.48C30.4397 66.8055 29.3652 67.88 28.0397 67.88C26.7142 67.88 25.6397 66.8055 25.6397 65.48C25.6397 64.1545 26.7142 63.08 28.0397 63.08C29.3652 63.08 30.4397 64.1545 30.4397 65.48ZM40.5202 67.88C41.8457 67.88 42.9202 66.8055 42.9202 65.48C42.9202 64.1545 41.8457 63.08 40.5202 63.08C39.1947 63.08 38.1202 64.1545 38.1202 65.48C38.1202 66.8055 39.1947 67.88 40.5202 67.88ZM55.3997 65.48C55.3997 66.8055 54.3252 67.88 52.9997 67.88C51.6742 67.88 50.5997 66.8055 50.5997 65.48C50.5997 64.1545 51.6742 63.08 52.9997 63.08C54.3252 63.08 55.3997 64.1545 55.3997 65.48ZM65.4802 67.88C66.8057 67.88 67.8802 66.8055 67.8802 65.48C67.8802 64.1545 66.8057 63.08 65.4802 63.08C64.1547 63.08 63.0802 64.1545 63.0802 65.48C63.0802 66.8055 64.1547 67.88 65.4802 67.88ZM80.3598 65.48C80.3598 66.8055 79.2852 67.88 77.9598 67.88C76.6343 67.88 75.5598 66.8055 75.5598 65.48C75.5598 64.1545 76.6343 63.08 77.9598 63.08C79.2852 63.08 80.3598 64.1545 80.3598 65.48ZM90.4393 67.88C91.7648 67.88 92.8393 66.8055 92.8393 65.48C92.8393 64.1545 91.7648 63.08 90.4393 63.08C89.1138 63.08 88.0393 64.1545 88.0393 65.48C88.0393 66.8055 89.1138 67.88 90.4393 67.88ZM105.319 65.48C105.319 66.8055 104.244 67.88 102.919 67.88C101.593 67.88 100.519 66.8055 100.519 65.48C100.519 64.1545 101.593 63.08 102.919 63.08C104.244 63.08 105.319 64.1545 105.319 65.48ZM3.07969 80.36C4.40517 80.36 5.47969 79.2855 5.47969 77.96C5.47969 76.6345 4.40517 75.56 3.07969 75.56C1.7542 75.56 0.679688 76.6345 0.679688 77.96C0.679688 79.2855 1.7542 80.36 3.07969 80.36ZM17.9592 77.96C17.9592 79.2855 16.8847 80.36 15.5592 80.36C14.2338 80.36 13.1592 79.2855 13.1592 77.96C13.1592 76.6345 14.2338 75.56 15.5592 75.56C16.8847 75.56 17.9592 76.6345 17.9592 77.96ZM28.0397 80.36C29.3652 80.36 30.4397 79.2855 30.4397 77.96C30.4397 76.6345 29.3652 75.56 28.0397 75.56C26.7142 75.56 25.6397 76.6345 25.6397 77.96C25.6397 79.2855 26.7142 80.36 28.0397 80.36ZM42.9202 77.96C42.9202 79.2855 41.8457 80.36 40.5202 80.36C39.1947 80.36 38.1202 79.2855 38.1202 77.96C38.1202 76.6345 39.1947 75.56 40.5202 75.56C41.8457 75.56 42.9202 76.6345 42.9202 77.96ZM52.9997 80.36C54.3252 80.36 55.3997 79.2855 55.3997 77.96C55.3997 76.6345 54.3252 75.56 52.9997 75.56C51.6742 75.56 50.5997 76.6345 50.5997 77.96C50.5997 79.2855 51.6742 80.36 52.9997 80.36ZM67.8802 77.96C67.8802 79.2855 66.8057 80.36 65.4802 80.36C64.1547 80.36 63.0802 79.2855 63.0802 77.96C63.0802 76.6345 64.1547 75.56 65.4802 75.56C66.8057 75.56 67.8802 76.6345 67.8802 77.96ZM77.9598 80.36C79.2852 80.36 80.3598 79.2855 80.3598 77.96C80.3598 76.6345 79.2852 75.56 77.9598 75.56C76.6343 75.56 75.5598 76.6345 75.5598 77.96C75.5598 79.2855 76.6343 80.36 77.9598 80.36ZM92.8393 77.96C92.8393 79.2855 91.7648 80.36 90.4393 80.36C89.1138 80.36 88.0393 79.2855 88.0393 77.96C88.0393 76.6345 89.1138 75.56 90.4393 75.56C91.7648 75.56 92.8393 76.6345 92.8393 77.96ZM102.919 80.36C104.244 80.36 105.319 79.2855 105.319 77.96C105.319 76.6345 104.244 75.56 102.919 75.56C101.593 75.56 100.519 76.6345 100.519 77.96C100.519 79.2855 101.593 80.36 102.919 80.36ZM5.47969 90.44C5.47969 91.7655 4.40517 92.84 3.07969 92.84C1.7542 92.84 0.679688 91.7655 0.679688 90.44C0.679688 89.1145 1.7542 88.04 3.07969 88.04C4.40517 88.04 5.47969 89.1145 5.47969 90.44ZM15.5592 92.84C16.8847 92.84 17.9592 91.7655 17.9592 90.44C17.9592 89.1145 16.8847 88.04 15.5592 88.04C14.2338 88.04 13.1592 89.1145 13.1592 90.44C13.1592 91.7655 14.2338 92.84 15.5592 92.84ZM30.4397 90.44C30.4397 91.7655 29.3652 92.84 28.0397 92.84C26.7142 92.84 25.6397 91.7655 25.6397 90.44C25.6397 89.1145 26.7142 88.04 28.0397 88.04C29.3652 88.04 30.4397 89.1145 30.4397 90.44ZM40.5202 92.84C41.8457 92.84 42.9202 91.7655 42.9202 90.44C42.9202 89.1145 41.8457 88.04 40.5202 88.04C39.1947 88.04 38.1202 89.1145 38.1202 90.44C38.1202 91.7655 39.1947 92.84 40.5202 92.84ZM55.3997 90.44C55.3997 91.7655 54.3252 92.84 52.9997 92.84C51.6742 92.84 50.5997 91.7655 50.5997 90.44C50.5997 89.1145 51.6742 88.04 52.9997 88.04C54.3252 88.04 55.3997 89.1145 55.3997 90.44ZM65.4802 92.84C66.8057 92.84 67.8802 91.7655 67.8802 90.44C67.8802 89.1145 66.8057 88.04 65.4802 88.04C64.1547 88.04 63.0802 89.1145 63.0802 90.44C63.0802 91.7655 64.1547 92.84 65.4802 92.84ZM80.3598 90.44C80.3598 91.7655 79.2852 92.84 77.9598 92.84C76.6343 92.84 75.5598 91.7655 75.5598 90.44C75.5598 89.1145 76.6343 88.04 77.9598 88.04C79.2852 88.04 80.3598 89.1145 80.3598 90.44ZM90.4393 92.84C91.7648 92.84 92.8393 91.7655 92.8393 90.44C92.8393 89.1145 91.7648 88.04 90.4393 88.04C89.1138 88.04 88.0393 89.1145 88.0393 90.44C88.0393 91.7655 89.1138 92.84 90.4393 92.84ZM105.319 90.44C105.319 91.7655 104.244 92.84 102.919 92.84C101.593 92.84 100.519 91.7655 100.519 90.44C100.519 89.1145 101.593 88.04 102.919 88.04C104.244 88.04 105.319 89.1145 105.319 90.44ZM3.07969 105.32C4.40517 105.32 5.47969 104.246 5.47969 102.92C5.47969 101.595 4.40517 100.52 3.07969 100.52C1.7542 100.52 0.679688 101.595 0.679688 102.92C0.679688 104.246 1.7542 105.32 3.07969 105.32ZM17.9592 102.92C17.9592 104.246 16.8847 105.32 15.5592 105.32C14.2338 105.32 13.1592 104.246 13.1592 102.92C13.1592 101.595 14.2338 100.52 15.5592 100.52C16.8847 100.52 17.9592 101.595 17.9592 102.92ZM28.0397 105.32C29.3652 105.32 30.4397 104.246 30.4397 102.92C30.4397 101.595 29.3652 100.52 28.0397 100.52C26.7142 100.52 25.6397 101.595 25.6397 102.92C25.6397 104.246 26.7142 105.32 28.0397 105.32ZM42.9202 102.92C42.9202 104.246 41.8457 105.32 40.5202 105.32C39.1947 105.32 38.1202 104.246 38.1202 102.92C38.1202 101.595 39.1947 100.52 40.5202 100.52C41.8457 100.52 42.9202 101.595 42.9202 102.92ZM52.9997 105.32C54.3252 105.32 55.3997 104.246 55.3997 102.92C55.3997 101.595 54.3252 100.52 52.9997 100.52C51.6742 100.52 50.5997 101.595 50.5997 102.92C50.5997 104.246 51.6742 105.32 52.9997 105.32ZM67.8802 102.92C67.8802 104.246 66.8057 105.32 65.4802 105.32C64.1547 105.32 63.0802 104.246 63.0802 102.92C63.0802 101.595 64.1547 100.52 65.4802 100.52C66.8057 100.52 67.8802 101.595 67.8802 102.92ZM77.9598 105.32C79.2852 105.32 80.3598 104.246 80.3598 102.92C80.3598 101.595 79.2852 100.52 77.9598 100.52C76.6343 100.52 75.5598 101.595 75.5598 102.92C75.5598 104.246 76.6343 105.32 77.9598 105.32ZM92.8393 102.92C92.8393 104.246 91.7648 105.32 90.4393 105.32C89.1138 105.32 88.0393 104.246 88.0393 102.92C88.0393 101.595 89.1138 100.52 90.4393 100.52C91.7648 100.52 92.8393 101.595 92.8393 102.92ZM102.919 105.32C104.244 105.32 105.319 104.246 105.319 102.92C105.319 101.595 104.244 100.52 102.919 100.52C101.593 100.52 100.519 101.595 100.519 102.92C100.519 104.246 101.593 105.32 102.919 105.32Z" fill="#DFE4E8"/>
</svg>
